<svg style="margin-top: -80px" xmlns="http://www.w3.org/2000/svg" width="600" height="680" role="img"><rect width="600" height="793.125" fill="transparent"></rect><g transform="translate(10,10)"><g transform="translate(290,391.5625)"><path d="M1.0658141036401503e-14,-162.3546043470385A5,5,0,0,1,5.1539109592963435,-167.35223492728434A167.43157806499147,167.43157806499147,0,0,1,167.34562026637917,5.36439288215877A5,5,0,0,1,162.0342346217413,10.194329954926683L123.04737350229789,7.741484560332641A5,5,0,0,1,118.36256921673983,2.639862700812059A118.39200423452027,118.39200423452027,0,0,0,4.797393679152133,-118.29476607421773A5,5,0,0,1,7.105427357601002e-15,-123.2906594556614Z" opacity="1" fill="#e8c1a0" stroke="rgba(0,0,0,0)" stroke-width="10"></path><path d="M162.0342346217413,10.19432995492668A5,5,0,0,1,166.6983867728951,15.651874668793036A167.43157806499147,167.43157806499147,0,0,1,5.153910959296327,167.35223492728437A5,5,0,0,1,1.0658141036401503e-14,162.3546043470385L7.105427357601002e-15,123.2906594556614A5,5,0,0,1,4.797393679152145,118.29476607421775A118.39200423452027,118.39200423452027,0,0,0,117.76010753373862,12.215716937985407A5,5,0,0,1,123.0473735022979,7.74148456033264Z" opacity="1" fill="#f47560" stroke="rgba(0,0,0,0)" stroke-width="10"></path><path d="M1.1546319456101628e-14,162.3546043470385A5,5,0,0,1,-5.153910959296321,167.35223492728434A167.43157806499147,167.43157806499147,0,0,1,-138.53856175335295,94.02340262214372A5,5,0,0,1,-137.08052628403541,86.9939472973568L-104.09774673197394,66.06243890697401A5,5,0,0,1,-97.3090023578378,67.43607882127327A118.39200423452027,118.39200423452027,0,0,0,-4.797393679152145,118.29476607421773A5,5,0,0,1,8.881784197001252e-15,123.2906594556614Z" opacity="1" fill="#f1e15b" stroke="rgba(0,0,0,0)" stroke-width="10"></path><path d="M-137.08052628403541,86.9939472973568A5,5,0,0,1,-144.06176893520671,85.32022072517418A167.43157806499147,167.43157806499147,0,0,1,-165.35371336083452,-26.29606075282588A5,5,0,0,1,-159.4788579471965,-30.42221919159323L-121.10684291722866,-23.102365844942696A5,5,0,0,1,-117.0983824768215,-17.45381012784012A118.39200423452027,118.39200423452027,0,0,0,-102.45014651654297,59.33493191540329A5,5,0,0,1,-104.09774673197396,66.06243890697404Z" opacity="1" fill="#e8a838" stroke="rgba(0,0,0,0)" stroke-width="10"></path><path d="M-159.4788579471965,-30.42221919159322A5,5,0,0,1,-163.4222201392131,-36.42130280624116A167.43157806499147,167.43157806499147,0,0,1,-5.153910959296381,-167.35223492728437A5,5,0,0,1,-3.108624468950438e-14,-162.3546043470385L-2.220446049250313e-14,-123.2906594556614A5,5,0,0,1,-4.797393679152159,-118.29476607421775A118.39200423452027,118.39200423452027,0,0,0,-115.30049860845193,-26.878647423355225A5,5,0,0,1,-121.10684291722866,-23.102365844942693Z" opacity="1" fill="#61cdbb" stroke="rgba(0,0,0,0)" stroke-width="10"></path><path d="M1.1546319456101628e-14,-199.99847583058983A5,5,0,0,1,5.124961907521785,-204.99691403883733A205.0609665440988,205.0609665440988,0,0,1,46.01670761641063,-199.83108521985707A5,5,0,0,1,49.73759838745232,-193.71515594090084L42.86395774424338,-166.9440931584073A5,5,0,0,1,36.9185454479554,-163.31060692845577A167.43157806499147,167.43157806499147,0,0,0,4.855014955609941,-167.3611728063416A5,5,0,0,1,1.1546319456101628e-14,-172.35907029797778Z" opacity="1" fill="rgb(243, 202, 168)" stroke="rgba(0,0,0,0)" stroke-width="10"></path><path d="M49.73759838745233,-193.71515594090081A5,5,0,0,1,55.94461122651316,-197.28203282284557A205.0609665440988,205.0609665440988,0,0,1,116.34798155878705,-168.85836427964162A5,5,0,0,1,117.55615457419336,-161.80216579603436L101.31011961999302,-139.44141700573027A5,5,0,0,1,94.44463957490674,-138.2517391894196A167.43157806499147,167.43157806499147,0,0,0,46.323516914018334,-160.89582068546713A5,5,0,0,1,42.863957744243386,-166.94409315840727Z" opacity="1" fill="rgb(243, 202, 168)" stroke="rgba(0,0,0,0)" stroke-width="10"></path><path d="M117.55615457419331,-161.80216579603436A5,5,0,0,1,124.64034411620578,-162.83361022403764A205.0609665440988,205.0609665440988,0,0,1,136.59410778228508,-152.9445968943051A5,5,0,0,1,136.90837781997902,-145.7926144125994L117.9879027530401,-125.64435489874747A5,5,0,0,1,111.02745290111089,-125.32453086137981A167.43157806499147,167.43157806499147,0,0,0,102.30021878897264,-132.54432680828577A5,5,0,0,1,101.31011961999297,-139.4414170057303Z" opacity="1" fill="rgb(243, 202, 168)" stroke="rgba(0,0,0,0)" stroke-width="10"></path><path d="M136.90837781997905,-145.7926144125994A5,5,0,0,1,144.0659806769114,-145.9280412107275A205.0609665440988,205.0609665440988,0,0,1,193.37995059208518,-68.221658650334A5,5,0,0,1,190.20985368778116,-61.80292788073942L163.92321694946622,-53.261881856741375A5,5,0,0,1,157.66965184304243,-56.33484020592514A167.43157806499147,167.43157806499147,0,0,0,118.10576007771371,-118.6775579871732A5,5,0,0,1,117.98790275304012,-125.64435489874744Z" opacity="1" fill="rgb(243, 202, 168)" stroke="rgba(0,0,0,0)" stroke-width="10"></path><path d="M190.20985368778122,-61.80292788073944A5,5,0,0,1,196.54735124198214,-58.47340181450796A205.0609665440988,205.0609665440988,0,0,1,204.91419847681365,7.757013768521139A5,5,0,0,1,199.60382452384428,12.558008202473577L172.01895904442924,10.822515569599487A5,5,0,0,1,167.33577267321704,5.663260296927673A167.43157806499147,167.43157806499147,0,0,0,160.67021610149843,-47.10005298543862A5,5,0,0,1,163.92321694946625,-53.26188185674139Z" opacity="1" fill="rgb(243, 202, 168)" stroke="rgba(0,0,0,0)" stroke-width="10"></path><path d="M199.6038245238443,12.558008202473573A5,5,0,0,1,204.2706004353312,17.986711700288073A205.0609665440988,205.0609665440988,0,0,1,161.21961066149683,126.72109981433788A5,5,0,0,1,154.10147416244305,127.48382640759147L132.80494617711508,109.86580625871187A5,5,0,0,1,132.04870297706796,102.9391731820662A167.43157806499147,167.43157806499147,0,0,0,166.72607485044637,15.354129682163123A5,5,0,0,1,172.0189590444292,10.822515569599485Z" opacity="1" fill="rgb(255, 123, 101)" stroke="rgba(0,0,0,0)" stroke-width="10"></path><path d="M154.10147416244303,127.48382640759154A5,5,0,0,1,154.68606332869163,134.61880185127194A205.0609665440988,205.0609665440988,0,0,1,124.64034411620575,162.83361022403764A5,5,0,0,1,117.55615457419333,161.80216579603436L101.31011961999297,139.4414170057303A5,5,0,0,1,102.30021878897267,132.54432680828577A167.43157806499147,167.43157806499147,0,0,0,125.859296970479,110.42087981641022A5,5,0,0,1,132.80494617711503,109.86580625871197Z" opacity="1" fill="rgb(255, 123, 101)" stroke="rgba(0,0,0,0)" stroke-width="10"></path><path d="M117.55615457419336,161.80216579603436A5,5,0,0,1,116.34798155878708,168.85836427964165A205.0609665440988,205.0609665440988,0,0,1,103.24905487225502,177.17119593203088A5,5,0,0,1,96.35000054612968,175.26000036893706L83.03461538080658,151.03940466826782A5,5,0,0,1,84.88134193874096,144.32079241748872A167.43157806499147,167.43157806499147,0,0,0,94.44463957490672,138.2517391894196A5,5,0,0,1,101.310119619993,139.44141700573027Z" opacity="1" fill="rgb(255, 123, 101)" stroke="rgba(0,0,0,0)" stroke-width="10"></path><path d="M96.35000054612975,175.26000036893706A5,5,0,0,1,94.26697816319171,182.10913438919076A205.0609665440988,205.0609665440988,0,0,1,30.77747615932019,202.73812409426716A5,5,0,0,1,25.066455683780113,198.42142811201643L21.602319614582733,170.99996754751933A5,5,0,0,1,25.79264867349533,165.43298524701467A167.43157806499147,167.43157806499147,0,0,0,76.37237786411329,148.99863500285642A5,5,0,0,1,83.03461538080663,151.03940466826782Z" opacity="1" fill="rgb(255, 123, 101)" stroke="rgba(0,0,0,0)" stroke-width="10"></path><path d="M25.066455683780127,198.42142811201643A5,5,0,0,1,20.608376055062113,204.02278018979436A205.0609665440988,205.0609665440988,0,0,1,5.12496190752169,204.9969140388373A5,5,0,0,1,-7.638334409421077e-14,199.99847583058983L-6.572520305780927e-14,172.35907029797778A5,5,0,0,1,4.8550149556098825,167.3611728063416A167.43157806499147,167.43157806499147,0,0,0,16.159185248370754,166.64997469379395A5,5,0,0,1,21.60231961458274,170.9999675475193Z" opacity="1" fill="rgb(255, 123, 101)" stroke="rgba(0,0,0,0)" stroke-width="10"></path><path d="M1.0658141036401503e-14,199.99847583058983A5,5,0,0,1,-5.124961907521763,204.99691403883733A205.0609665440988,205.0609665440988,0,0,1,-136.59410778228505,152.94459689430516A5,5,0,0,1,-136.90837781997902,145.79261441259945L-117.98790275304006,125.64435489874747A5,5,0,0,1,-111.02745290111085,125.32453086137981A167.43157806499147,167.43157806499147,0,0,0,-4.855014955609958,167.3611728063416A5,5,0,0,1,8.881784197001252e-15,172.35907029797778Z" opacity="1" fill="rgb(252, 236, 95)" stroke="rgba(0,0,0,0)" stroke-width="10"></path><path d="M-136.90837781997894,145.79261441259948A5,5,0,0,1,-144.06598067691132,145.9280412107276A205.0609665440988,205.0609665440988,0,0,1,-170.33852725142953,114.16998788566985A5,5,0,0,1,-168.86429820160674,107.16454230498934L-145.52757626614752,92.3546082233251A5,5,0,0,1,-138.70626474192304,93.77582553449952A167.43157806499147,167.43157806499147,0,0,0,-118.10576007771364,118.67755798717326A5,5,0,0,1,-117.98790275304,125.64435489874752Z" opacity="1" fill="rgb(252, 236, 95)" stroke="rgba(0,0,0,0)" stroke-width="10"></path><path d="M-168.86429820160672,107.16454230498931A5,5,0,0,1,-175.8307110780232,105.51569097436042A205.0609665440988,205.0609665440988,0,0,1,-204.27060043533118,17.98671170028819A5,5,0,0,1,-199.60382452384428,12.558008202473673L-172.01895904442924,10.82251556959957A5,5,0,0,1,-166.7260748504464,15.354129682163203A167.43157806499147,167.43157806499147,0,0,0,-143.9091589484022,85.57737612299671A5,5,0,0,1,-145.5275762661475,92.35460822332509Z" opacity="1" fill="rgb(243, 176, 59)" stroke="rgba(0,0,0,0)" stroke-width="10"></path><path d="M-199.60382452384425,12.55800820247369A5,5,0,0,1,-204.9141984768136,7.757013768521258A205.0609665440988,205.0609665440988,0,0,1,-204.91419847681365,-7.757013768520987A5,5,0,0,1,-199.60382452384428,-12.55800820247346L-172.01895904442924,-10.822515569599386A5,5,0,0,1,-167.33577267321704,-5.663260296927574A167.43157806499147,167.43157806499147,0,0,0,-167.33577267321706,5.663260296927783A5,5,0,0,1,-172.01895904442924,10.822515569599586Z" opacity="1" fill="rgb(243, 176, 59)" stroke="rgba(0,0,0,0)" stroke-width="10"></path><path d="M-199.6038245238443,-12.55800820247347A5,5,0,0,1,-204.2706004353312,-17.98671170028797A205.0609665440988,205.0609665440988,0,0,1,-202.32617719850805,-33.3784064963852A5,5,0,0,1,-196.4559529735582,-37.475977316277124L-169.3061173011534,-32.29686917320834A5,5,0,0,1,-165.30648539938582,-26.591337278068103A167.43157806499147,167.43157806499147,0,0,0,-166.7260748504464,-15.354129682163054A5,5,0,0,1,-172.0189590444292,-10.822515569599396Z" opacity="1" fill="rgb(243, 176, 59)" stroke="rgba(0,0,0,0)" stroke-width="10"></path><path d="M-196.4559529735582,-37.47597731627712A5,5,0,0,1,-200.40553299964168,-43.446775980842865A205.0609665440988,205.0609665440988,0,0,1,-175.83071107802334,-105.51569097436023A5,5,0,0,1,-168.86429820160686,-107.16454230498913L-145.5275762661476,-92.3546082233249A5,5,0,0,1,-143.90915894840228,-85.57737612299653A167.43157806499147,167.43157806499147,0,0,0,-163.48700722995474,-36.12937586405358A5,5,0,0,1,-169.3061173011534,-32.296869173208336Z" opacity="1" fill="rgb(102, 215, 196)" stroke="rgba(0,0,0,0)" stroke-width="10"></path><path d="M-168.86429820160686,-107.16454230498917A5,5,0,0,1,-170.33852725142967,-114.16998788566968A205.0609665440988,205.0609665440988,0,0,1,-124.64034411620598,-162.83361022403747A5,5,0,0,1,-117.55615457419349,-161.80216579603422L-101.31011961999315,-139.44141700573016A5,5,0,0,1,-102.30021878897281,-132.54432680828563A167.43157806499147,167.43157806499147,0,0,0,-138.70626474192315,-93.77582553449936A5,5,0,0,1,-145.52757626614758,-92.35460822332493Z" opacity="1" fill="rgb(102, 215, 196)" stroke="rgba(0,0,0,0)" stroke-width="10"></path><path d="M-117.55615457419349,-161.80216579603422A5,5,0,0,1,-116.34798155878724,-168.8583642796415A205.0609665440988,205.0609665440988,0,0,1,-5.124961907522028,-204.9969140388373A5,5,0,0,1,-2.1227464230832993e-13,-199.99847583058983L-1.8207657603852567e-13,-172.35907029797778A5,5,0,0,1,-4.855014955610122,-167.3611728063416A167.43157806499147,167.43157806499147,0,0,0,-94.4446395749069,-138.25173918941948A5,5,0,0,1,-101.31011961999313,-139.44141700573016Z" opacity="1" fill="rgb(102, 215, 196)" stroke="rgba(0,0,0,0)" stroke-width="10"></path><path d="M1.2434497875801753e-14,-231.7300726750334A5,5,0,0,1,5.107859037235273,-236.72890918247057A236.78400846904054,236.78400846904054,0,0,1,53.92469946036296,-230.561908074114A5,5,0,0,1,57.628925626257654,-224.44984632015127L52.22523729772834,-203.40386981234388A5,5,0,0,1,46.254498406444526,-199.77617820242787A205.0609665440988,205.0609665440988,0,0,0,4.880986932454454,-205.00286819106998A5,5,0,0,1,1.1546319456101628e-14,-210.0014515793665Z" opacity="1" fill="rgb(255, 212, 176)" stroke="rgba(0,0,0,0)" stroke-width="10"></path><path d="M57.628925626257654,-224.44984632015132A5,5,0,0,1,63.81947196613253,-228.021362298866A236.78400846904054,236.78400846904054,0,0,1,82.39655657427559,-221.9853016110951A5,5,0,0,1,85.30552934708463,-215.45717264642167L77.30669042578738,-195.25441168089512A5,5,0,0,1,70.92836227418972,-192.403657514875A205.0609665440988,205.0609665440988,0,0,0,55.70978191137305,-197.34847402345744A5,5,0,0,1,52.22523729772834,-203.4038698123439Z" opacity="1" fill="rgb(255, 212, 176)" stroke="rgba(0,0,0,0)" stroke-width="10"></path><path d="M85.30552934708467,-215.45717264642164A5,5,0,0,1,91.89489102638197,-218.22464496457783A236.78400846904054,236.78400846904054,0,0,1,109.56897076969474,-209.90785433407783A5,5,0,0,1,111.63681391105482,-203.06661065218177L101.16897086505323,-184.02567483790682A5,5,0,0,1,94.48364349832097,-181.99681621193872A205.0609665440988,205.0609665440988,0,0,0,80.00481602963771,-188.81003525253584A5,5,0,0,1,77.30669042578744,-195.2544116808951Z" opacity="1" fill="rgb(255, 212, 176)" stroke="rgba(0,0,0,0)" stroke-width="10"></path><path d="M111.63681391105483,-203.06661065218174A5,5,0,0,1,118.52107275979816,-204.98639461811433A236.78400846904054,236.78400846904054,0,0,1,135.0134168427454,-194.52003480133797A5,5,0,0,1,136.2075192310476,-187.47356690184367L123.43575619836344,-169.89474317111512A5,5,0,0,1,116.54886122269095,-168.71977639771197A205.0609665440988,205.0609665440988,0,0,0,103.03812640655427,-177.2939494360339A5,5,0,0,1,101.16897086505325,-184.02567483790676Z" opacity="1" fill="rgb(255, 212, 176)" stroke="rgba(0,0,0,0)" stroke-width="10"></path><path d="M136.20751923104768,-187.47356690184364A5,5,0,0,1,143.27810637473544,-188.5153863755865A236.78400846904054,236.78400846904054,0,0,1,158.3286206790801,-176.06451811914468A5,5,0,0,1,158.6301506063388,-168.92395301018308L143.75588591947894,-153.0844699143148A5,5,0,0,1,136.77603378266423,-152.78192492138427A205.0609665440988,205.0609665440988,0,0,0,124.44646397804642,-162.9818321266539A5,5,0,0,1,123.43575619836358,-169.89474317111507Z" opacity="1" fill="rgb(255, 212, 176)" stroke="rgba(0,0,0,0)" stroke-width="10"></path><path d="M158.63015060633887,-168.923953010183A5,5,0,0,1,165.7755586619511,-169.07137787628244A236.78400846904054,236.78400846904054,0,0,1,179.14688758637226,-154.83235881036742A5,5,0,0,1,178.55108974550927,-147.71030746927363L161.80889944404052,-133.85996311873603A5,5,0,0,1,154.8461665838427,-134.4346112215483A205.0609665440988,205.0609665440988,0,0,0,143.8922064718906,-146.09939396400935A5,5,0,0,1,143.75588591947903,-153.08446991431472Z" opacity="1" fill="rgb(255, 212, 176)" stroke="rgba(0,0,0,0)" stroke-width="10"></path><path d="M178.55108974550927,-147.7103074692736A5,5,0,0,1,185.6586313595491,-146.96101274952383A236.78400846904054,236.78400846904054,0,0,1,197.13990105926393,-131.15840071078287A5,5,0,0,1,195.65617153814208,-124.16718214171321L177.3100899644183,-112.52440474070896A5,5,0,0,1,170.47428283737767,-113.9671833954045A205.0609665440988,205.0609665440988,0,0,0,161.06868291263532,-126.91288108300486A5,5,0,0,1,161.80889944404052,-133.85996311873606Z" opacity="1" fill="rgb(255, 212, 176)" stroke="rgba(0,0,0,0)" stroke-width="10"></path><path d="M195.65617153814213,-124.1671821417132A5,5,0,0,1,202.61375653351655,-122.53298466145169A236.78400846904054,236.78400846904054,0,0,1,212.02390052678257,-105.41599628175828A5,5,0,0,1,209.67563862628694,-98.66586617789856L190.01499444614365,-89.4142692810996A5,5,0,0,1,183.41391781416692,-91.70242500641969A205.0609665440988,205.0609665440988,0,0,0,175.70501000608053,-105.7248762532411A5,5,0,0,1,177.3100899644183,-112.52440474070896Z" opacity="1" fill="rgb(255, 212, 176)" stroke="rgba(0,0,0,0)" stroke-width="10"></path><path d="M209.67563862628697,-98.66586617789851A5,5,0,0,1,216.37354173135915,-96.17253820761124A236.78400846904054,236.78400846904054,0,0,1,223.56415642605486,-78.01111861890668A5,5,0,0,1,220.38839563914001,-71.608530564327L199.7232489559976,-64.89401738143191A5,5,0,0,1,193.46100574086307,-67.99146459471028A205.0609665440988,205.0609665440988,0,0,0,187.5703641306446,-82.86952696798384A5,5,0,0,1,190.01499444614367,-89.41426928109955Z" opacity="1" fill="rgb(255, 212, 176)" stroke="rgba(0,0,0,0)" stroke-width="10"></path><path d="M220.38839563914004,-71.60853056432691A5,5,0,0,1,226.72098692080962,-68.29539337554722A236.78400846904054,236.78400846904054,0,0,1,231.5786720277347,-49.375959013851485A5,5,0,0,1,227.6254959991178,-43.42188564689328L206.28174852092974,-39.3503480618521A5,5,0,0,1,200.45709803902287,-43.208238170210066A205.0609665440988,205.0609665440988,0,0,0,196.47762156376405,-58.707275738585636A5,5,0,0,1,199.72324895599766,-64.89401738143184Z" opacity="1" fill="rgb(255, 212, 176)" stroke="rgba(0,0,0,0)" stroke-width="10"></path><path d="M227.6254959991178,-43.42188564689329A5,5,0,0,1,233.49290670996618,-39.34118939226047A236.78400846904054,236.78400846904054,0,0,1,235.941053633144,-19.96211103937968A5,5,0,0,1,231.2728063103092,-14.550451653830912L209.58706168494317,-13.186100246578384A5,5,0,0,1,204.29186215384115,-17.743592018415296A205.0609665440988,205.0609665440988,0,0,0,202.28630953478094,-33.61917570076342A5,5,0,0,1,206.28174852092974,-39.35034806185211Z" opacity="1" fill="rgb(255, 212, 176)" stroke="rgba(0,0,0,0)" stroke-width="10"></path><path d="M231.2728063103092,-14.550451653830912A5,5,0,0,1,236.58250387840502,-9.766551350970303A236.78400846904054,236.78400846904054,0,0,1,236.58250387840502,9.766551350970257A5,5,0,0,1,231.2728063103092,14.550451653830866L209.58706168494317,13.186100246578341A5,5,0,0,1,204.90482156445034,8.00088117901797A205.0609665440988,205.0609665440988,0,0,0,204.90482156445037,-8.000881179018009A5,5,0,0,1,209.5870616849432,-13.186100246578384Z" opacity="1" fill="rgb(255, 212, 176)" stroke="rgba(0,0,0,0)" stroke-width="10"></path><path d="M231.2728063103092,14.550451653830912A5,5,0,0,1,235.94105363314404,19.96211103937968A236.78400846904054,236.78400846904054,0,0,1,233.49290670996615,39.34118939226047A5,5,0,0,1,227.6254959991178,43.42188564689329L206.28174852092974,39.35034806185211A5,5,0,0,1,202.28630953478097,33.61917570076343A205.0609665440988,205.0609665440988,0,0,0,204.29186215384115,17.7435920184153A5,5,0,0,1,209.58706168494317,13.186100246578384Z" opacity="1" fill="rgb(255, 129, 106)" stroke="rgba(0,0,0,0)" stroke-width="10"></path><path d="M227.6254959991178,43.42188564689328A5,5,0,0,1,231.57867202773474,49.37595901385148A236.78400846904054,236.78400846904054,0,0,1,226.7209869208096,68.29539337554722A5,5,0,0,1,220.38839563914004,71.60853056432691L199.72324895599766,64.89401738143184A5,5,0,0,1,196.47762156376405,58.707275738585636A205.0609665440988,205.0609665440988,0,0,0,200.4570980390228,43.20823817021006A5,5,0,0,1,206.28174852092974,39.3503480618521Z" opacity="1" fill="rgb(255, 129, 106)" stroke="rgba(0,0,0,0)" stroke-width="10"></path><path d="M220.38839563914001,71.60853056432695A5,5,0,0,1,223.5641564260549,78.01111861890664A236.78400846904054,236.78400846904054,0,0,1,216.37354173135915,96.17253820761124A5,5,0,0,1,209.67563862628697,98.66586617789851L190.01499444614367,89.41426928109955A5,5,0,0,1,187.5703641306446,82.86952696798384A205.0609665440988,205.0609665440988,0,0,0,193.4610057408631,67.99146459471024A5,5,0,0,1,199.7232489559976,64.89401738143187Z" opacity="1" fill="rgb(255, 129, 106)" stroke="rgba(0,0,0,0)" stroke-width="10"></path><path d="M209.67563862628694,98.66586617789856A5,5,0,0,1,212.02390052678257,105.41599628175828A236.78400846904054,236.78400846904054,0,0,1,202.61375653351647,122.53298466145176A5,5,0,0,1,195.65617153814202,124.16718214171325L177.31008996441824,112.524404740709A5,5,0,0,1,175.7050100060805,105.72487625324116A205.0609665440988,205.0609665440988,0,0,0,183.41391781416692,91.70242500641969A5,5,0,0,1,190.01499444614365,89.4142692810996Z" opacity="1" fill="rgb(255, 129, 106)" stroke="rgba(0,0,0,0)" stroke-width="10"></path><path d="M195.6561715381421,124.16718214171318A5,5,0,0,1,197.139901059264,131.15840071078281A236.78400846904054,236.78400846904054,0,0,1,185.65863135954896,146.961012749524A5,5,0,0,1,178.55108974550913,147.71030746927377L161.8088994440404,133.85996311873618A5,5,0,0,1,161.06868291263524,126.91288108300502A205.0609665440988,205.0609665440988,0,0,0,170.47428283737767,113.96718339540449A5,5,0,0,1,177.31008996441832,112.52440474070893Z" opacity="1" fill="rgb(255, 129, 106)" stroke="rgba(0,0,0,0)" stroke-width="10"></path><path d="M178.55108974550927,147.71030746927363A5,5,0,0,1,179.1468875863723,154.83235881036742A236.78400846904054,236.78400846904054,0,0,1,165.77555866195107,169.0713778762824A5,5,0,0,1,158.63015060633884,168.923953010183L143.755885919479,153.08446991431472A5,5,0,0,1,143.89220647189057,146.09939396400935A205.0609665440988,205.0609665440988,0,0,0,154.8461665838427,134.43461122154832A5,5,0,0,1,161.80889944404052,133.85996311873603Z" opacity="1" fill="rgb(255, 129, 106)" stroke="rgba(0,0,0,0)" stroke-width="10"></path><path d="M158.63015060633887,168.923953010183A5,5,0,0,1,158.32862067908025,176.0645181191446A236.78400846904054,236.78400846904054,0,0,1,143.27810637473544,188.5153863755865A5,5,0,0,1,136.20751923104768,187.47356690184364L123.43575619836356,169.89474317111507A5,5,0,0,1,124.44646397804644,162.98183212665393A205.0609665440988,205.0609665440988,0,0,0,136.77603378266429,152.7819249213842A5,5,0,0,1,143.75588591947903,153.08446991431472Z" opacity="1" fill="rgb(255, 129, 106)" stroke="rgba(0,0,0,0)" stroke-width="10"></path><path d="M111.63681391105482,203.06661065218177A5,5,0,0,1,109.56897076969477,209.90785433407783A236.78400846904054,236.78400846904054,0,0,1,91.89489102638173,218.22464496457795A5,5,0,0,1,85.30552934708444,215.45717264642172L77.3066904257872,195.25441168089517A5,5,0,0,1,80.00481602963745,188.81003525253595A205.0609665440988,205.0609665440988,0,0,0,94.48364349832096,181.9968162119387A5,5,0,0,1,101.16897086505323,184.02567483790682Z" opacity="1" fill="rgb(255, 129, 106)" stroke="rgba(0,0,0,0)" stroke-width="10"></path><path d="M85.30552934708456,215.45717264642164A5,5,0,0,1,82.39655657427556,221.9853016110951A236.78400846904054,236.78400846904054,0,0,1,63.8194719661324,228.021362298866A5,5,0,0,1,57.6289256262575,224.4498463201513L52.225237297728206,203.40386981234394A5,5,0,0,1,55.7097819113729,197.34847402345747A205.0609665440988,205.0609665440988,0,0,0,70.92836227418965,192.403657514875A5,5,0,0,1,77.30669042578731,195.25441168089512Z" opacity="1" fill="rgb(255, 129, 106)" stroke="rgba(0,0,0,0)" stroke-width="10"></path><path d="M57.628925626257555,224.44984632015132A5,5,0,0,1,53.92469946036288,230.56190807411403A236.78400846904054,236.78400846904054,0,0,1,34.73758170907253,234.22204653634162A5,5,0,0,1,29.043479322453017,229.90281183757307L26.32016097963954,208.34552740926998A5,5,0,0,1,30.536171252955427,202.77460946876508A205.0609665440988,205.0609665440988,0,0,0,46.254498406444434,199.77617820242793A5,5,0,0,1,52.22523729772827,203.40386981234397Z" opacity="1" fill="rgb(255, 129, 106)" stroke="rgba(0,0,0,0)" stroke-width="10"></path><path d="M29.043479322453116,229.902811837573A5,5,0,0,1,24.602417622906394,235.50241551579632A236.78400846904054,236.78400846904054,0,0,1,5.10785903723519,236.72890918247057A5,5,0,0,1,-9.14823772291129e-14,231.7300726750334L-8.260059303211165e-14,210.0014515793665A5,5,0,0,1,4.880986932454351,205.00286819107A205.0609665440988,205.0609665440988,0,0,0,20.8511734677317,203.9981092192243A5,5,0,0,1,26.32016097963963,208.3455274092699Z" opacity="1" fill="rgb(255, 129, 106)" stroke="rgba(0,0,0,0)" stroke-width="10"></path><path d="M1.3322676295501878e-14,231.7300726750334A5,5,0,0,1,-5.107859037235246,236.72890918247057A236.78400846904054,236.78400846904054,0,0,1,-24.602417622906493,235.5024155157963A5,5,0,0,1,-29.043479322453187,229.90281183757298L-26.320160979639695,208.34552740926992A5,5,0,0,1,-20.85117346773178,203.9981092192243A205.0609665440988,205.0609665440988,0,0,0,-4.880986932454429,205.00286819106998A5,5,0,0,1,1.2434497875801753e-14,210.0014515793665Z" opacity="1" fill="rgb(255, 247, 100)" stroke="rgba(0,0,0,0)" stroke-width="10"></path><path d="M-29.043479322453194,229.902811837573A5,5,0,0,1,-34.73758170907271,234.2220465363416A236.78400846904054,236.78400846904054,0,0,1,-53.924699460363136,230.56190807411397A5,5,0,0,1,-57.628925626257754,224.44984632015124L-52.22523729772844,203.40386981234388A5,5,0,0,1,-46.25449840644462,199.77617820242787A205.0609665440988,205.0609665440988,0,0,0,-30.53617125295558,202.77460946876502A5,5,0,0,1,-26.320160979639695,208.34552740926995Z" opacity="1" fill="rgb(255, 247, 100)" stroke="rgba(0,0,0,0)" stroke-width="10"></path><path d="M-57.62892562625771,224.4498463201513A5,5,0,0,1,-63.81947196613259,228.02136229886597A236.78400846904054,236.78400846904054,0,0,1,-82.39655657427572,221.98530161109508A5,5,0,0,1,-85.30552934708469,215.4571726464216L-77.30669042578742,195.25441168089506A5,5,0,0,1,-70.92836227418977,192.40365751487494A205.0609665440988,205.0609665440988,0,0,0,-55.70978191137311,197.3484740234574A5,5,0,0,1,-52.22523729772841,203.4038698123439Z" opacity="1" fill="rgb(255, 247, 100)" stroke="rgba(0,0,0,0)" stroke-width="10"></path><path d="M-85.30552934708474,215.4571726464216A5,5,0,0,1,-91.89489102638204,218.2246449645778A236.78400846904054,236.78400846904054,0,0,1,-109.56897076969496,209.90785433407774A5,5,0,0,1,-111.63681391105494,203.06661065218168L-101.16897086505335,184.0256748379067A5,5,0,0,1,-94.4836434983211,181.9968162119386A205.0609665440988,205.0609665440988,0,0,0,-80.00481602963777,188.81003525253584A5,5,0,0,1,-77.30669042578747,195.25441168089503Z" opacity="1" fill="rgb(255, 247, 100)" stroke="rgba(0,0,0,0)" stroke-width="10"></path><path d="M-111.63681391105493,203.0666106521817A5,5,0,0,1,-118.52107275979824,204.9863946181143A236.78400846904054,236.78400846904054,0,0,1,-135.01341684274544,194.52003480133794A5,5,0,0,1,-136.20751923104768,187.4735669018436L-123.43575619836353,169.89474317111507A5,5,0,0,1,-116.54886122269106,168.7197763977119A205.0609665440988,205.0609665440988,0,0,0,-103.0381264065543,177.2939494360339A5,5,0,0,1,-101.16897086505332,184.02567483790673Z" opacity="1" fill="rgb(255, 247, 100)" stroke="rgba(0,0,0,0)" stroke-width="10"></path><path d="M-136.20751923104783,187.47356690184353A5,5,0,0,1,-143.2781063747356,188.5153863755864A236.78400846904054,236.78400846904054,0,0,1,-158.32862067908036,176.06451811914445A5,5,0,0,1,-158.630150606339,168.92395301018288L-143.7558859194791,153.08446991431464A5,5,0,0,1,-136.7760337826644,152.7819249213841A205.0609665440988,205.0609665440988,0,0,0,-124.44646397804658,162.98183212665379A5,5,0,0,1,-123.43575619836366,169.89474317111498Z" opacity="1" fill="rgb(255, 247, 100)" stroke="rgba(0,0,0,0)" stroke-width="10"></path><path d="M-158.6301506063388,168.92395301018308A5,5,0,0,1,-165.775558661951,169.07137787628253A236.78400846904054,236.78400846904054,0,0,1,-179.14688758637223,154.83235881036748A5,5,0,0,1,-178.55108974550922,147.71030746927366L-161.80889944404046,133.8599631187361A5,5,0,0,1,-154.84616658384263,134.43461122154832A205.0609665440988,205.0609665440988,0,0,0,-143.8922064718905,146.09939396400944A5,5,0,0,1,-143.7558859194789,153.0844699143148Z" opacity="1" fill="rgb(255, 247, 100)" stroke="rgba(0,0,0,0)" stroke-width="10"></path><path d="M-178.55108974550922,147.71030746927366A5,5,0,0,1,-185.65863135954905,146.96101274952392A236.78400846904054,236.78400846904054,0,0,1,-197.139901059264,131.15840071078281A5,5,0,0,1,-195.6561715381421,124.16718214171318L-177.31008996441832,112.52440474070893A5,5,0,0,1,-170.4742828373777,113.96718339540448A205.0609665440988,205.0609665440988,0,0,0,-161.06868291263532,126.91288108300488A5,5,0,0,1,-161.8088994440405,133.85996311873612Z" opacity="1" fill="rgb(255, 247, 100)" stroke="rgba(0,0,0,0)" stroke-width="10"></path><path d="M-195.65617153814208,124.16718214171314A5,5,0,0,1,-202.61375653351652,122.53298466145164A236.78400846904054,236.78400846904054,0,0,1,-212.02390052678257,105.41599628175827A5,5,0,0,1,-209.67563862628694,98.66586617789856L-190.01499444614365,89.4142692810996A5,5,0,0,1,-183.41391781416692,91.70242500641969A205.0609665440988,205.0609665440988,0,0,0,-175.70501000608053,105.72487625324109A5,5,0,0,1,-177.3100899644183,112.5244047407089Z" opacity="1" fill="rgb(255, 184, 62)" stroke="rgba(0,0,0,0)" stroke-width="10"></path><path d="M-209.6756386262869,98.66586617789861A5,5,0,0,1,-216.3735417313591,96.17253820761134A236.78400846904054,236.78400846904054,0,0,1,-223.56415642605486,78.01111861890674A5,5,0,0,1,-220.38839563914,71.608530564327L-199.72324895599758,64.89401738143192A5,5,0,0,1,-193.46100574086307,67.9914645947103A205.0609665440988,205.0609665440988,0,0,0,-187.57036413064452,82.86952696798397A5,5,0,0,1,-190.01499444614362,89.41426928109965Z" opacity="1" fill="rgb(255, 184, 62)" stroke="rgba(0,0,0,0)" stroke-width="10"></path><path d="M-220.38839563914004,71.60853056432695A5,5,0,0,1,-226.72098692080962,68.29539337554726A236.78400846904054,236.78400846904054,0,0,1,-231.5786720277347,49.37595901385152A5,5,0,0,1,-227.6254959991178,43.42188564689328L-206.28174852092974,39.3503480618521A5,5,0,0,1,-200.45709803902287,43.208238170210066A205.0609665440988,205.0609665440988,0,0,0,-196.47762156376402,58.70727573858569A5,5,0,0,1,-199.72324895599763,64.89401738143187Z" opacity="1" fill="rgb(255, 184, 62)" stroke="rgba(0,0,0,0)" stroke-width="10"></path><path d="M-227.6254959991178,43.42188564689326A5,5,0,0,1,-233.49290670996618,39.34118939226044A236.78400846904054,236.78400846904054,0,0,1,-235.94105363314404,19.96211103937957A5,5,0,0,1,-231.27280631030916,14.55045165383082L-209.58706168494317,13.186100246578299A5,5,0,0,1,-204.29186215384115,17.743592018415214A205.0609665440988,205.0609665440988,0,0,0,-202.28630953478094,33.61917570076338A5,5,0,0,1,-206.28174852092974,39.35034806185208Z" opacity="1" fill="rgb(255, 184, 62)" stroke="rgba(0,0,0,0)" stroke-width="10"></path><path d="M-231.2728063103092,14.550451653831043A5,5,0,0,1,-236.58250387840502,9.766551350970438A236.78400846904054,236.78400846904054,0,0,1,-236.58250387840502,-9.766551350970154A5,5,0,0,1,-231.2728063103092,-14.55045165383078L-209.58706168494317,-13.18610024657826A5,5,0,0,1,-204.90482156445034,-8.00088117901789A205.0609665440988,205.0609665440988,0,0,0,-204.90482156445037,8.000881179018117A5,5,0,0,1,-209.5870616849432,13.186100246578501Z" opacity="1" fill="rgb(255, 184, 62)" stroke="rgba(0,0,0,0)" stroke-width="10"></path><path d="M-231.27280631030916,-14.550451653830798A5,5,0,0,1,-235.941053633144,-19.962111039379565A236.78400846904054,236.78400846904054,0,0,1,-233.49290670996618,-39.341189392260354A5,5,0,0,1,-227.62549599911782,-43.4218856468932L-206.28174852092974,-39.35034806185204A5,5,0,0,1,-202.28630953478097,-33.619175700763364A205.0609665440988,205.0609665440988,0,0,0,-204.29186215384115,-17.74359201841524A5,5,0,0,1,-209.58706168494317,-13.186100246578281Z" opacity="1" fill="rgb(255, 184, 62)" stroke="rgba(0,0,0,0)" stroke-width="10"></path><path d="M-227.62549599911782,-43.42188564689317A5,5,0,0,1,-231.57867202773477,-49.37595901385137A236.78400846904054,236.78400846904054,0,0,1,-216.37354173135924,-96.17253820761104A5,5,0,0,1,-209.67563862628705,-98.66586617789835L-190.01499444614376,-89.41426928109942A5,5,0,0,1,-187.5703641306447,-82.8695269679837A205.0609665440988,205.0609665440988,0,0,0,-200.45709803902284,-43.20823817020995A5,5,0,0,1,-206.28174852092974,-39.350348061852Z" opacity="1" fill="rgb(107, 225, 205)" stroke="rgba(0,0,0,0)" stroke-width="10"></path><path d="M-209.67563862628708,-98.66586617789828A5,5,0,0,1,-212.0239005267827,-105.415996281758A236.78400846904054,236.78400846904054,0,0,1,-202.61375653351664,-122.53298466145154A5,5,0,0,1,-195.6561715381422,-124.167182141713L-177.31008996441838,-112.52440474070877A5,5,0,0,1,-175.7050100060806,-105.72487625324094A205.0609665440988,205.0609665440988,0,0,0,-183.41391781416704,-91.70242500641946A5,5,0,0,1,-190.0149944461438,-89.41426928109935Z" opacity="1" fill="rgb(107, 225, 205)" stroke="rgba(0,0,0,0)" stroke-width="10"></path><path d="M-195.65617153814222,-124.16718214171307A5,5,0,0,1,-197.1399010592641,-131.1584007107827A236.78400846904054,236.78400846904054,0,0,1,-185.6586313595492,-146.96101274952375A5,5,0,0,1,-178.55108974550936,-147.71030746927352L-161.80889944404058,-133.85996311873598A5,5,0,0,1,-161.0686829126354,-126.91288108300479A205.0609665440988,205.0609665440988,0,0,0,-170.47428283737776,-113.96718339540435A5,5,0,0,1,-177.31008996441838,-112.52440474070883Z" opacity="1" fill="rgb(107, 225, 205)" stroke="rgba(0,0,0,0)" stroke-width="10"></path><path d="M-178.55108974550936,-147.71030746927352A5,5,0,0,1,-179.14688758637237,-154.8323588103673A236.78400846904054,236.78400846904054,0,0,1,-165.77555866195104,-169.07137787628247A5,5,0,0,1,-158.63015060633884,-168.923953010183L-143.755885919479,-153.08446991431472A5,5,0,0,1,-143.89220647189057,-146.09939396400935A205.0609665440988,205.0609665440988,0,0,0,-154.84616658384272,-134.43461122154827A5,5,0,0,1,-161.80889944404058,-133.85996311873598Z" opacity="1" fill="rgb(107, 225, 205)" stroke="rgba(0,0,0,0)" stroke-width="10"></path><path d="M-158.63015060633887,-168.923953010183A5,5,0,0,1,-158.32862067908025,-176.0645181191446A236.78400846904054,236.78400846904054,0,0,1,-143.27810637473553,-188.51538637558642A5,5,0,0,1,-136.20751923104774,-187.4735669018436L-123.43575619836359,-169.89474317111504A5,5,0,0,1,-124.44646397804645,-162.9818321266539A205.0609665440988,205.0609665440988,0,0,0,-136.77603378266429,-152.7819249213842A5,5,0,0,1,-143.75588591947903,-153.08446991431472Z" opacity="1" fill="rgb(107, 225, 205)" stroke="rgba(0,0,0,0)" stroke-width="10"></path><path d="M-136.20751923104783,-187.47356690184347A5,5,0,0,1,-135.01341684274564,-194.52003480133777A236.78400846904054,236.78400846904054,0,0,1,-118.52107275979843,-204.9863946181142A5,5,0,0,1,-111.63681391105509,-203.0666106521816L-101.16897086505348,-184.02567483790662A5,5,0,0,1,-103.03812640655447,-177.29394943603376A205.0609665440988,205.0609665440988,0,0,0,-116.5488612226912,-168.7197763977118A5,5,0,0,1,-123.43575619836368,-169.89474317111495Z" opacity="1" fill="rgb(107, 225, 205)" stroke="rgba(0,0,0,0)" stroke-width="10"></path><path d="M-111.63681391105493,-203.06661065218168A5,5,0,0,1,-109.56897076969491,-209.90785433407774A236.78400846904054,236.78400846904054,0,0,1,-91.89489102638204,-218.2246449645778A5,5,0,0,1,-85.30552934708474,-215.4571726464216L-77.30669042578745,-195.25441168089506A5,5,0,0,1,-80.00481602963771,-188.81003525253584A205.0609665440988,205.0609665440988,0,0,0,-94.4836434983211,-181.99681621193864A5,5,0,0,1,-101.16897086505334,-184.02567483790673Z" opacity="1" fill="rgb(107, 225, 205)" stroke="rgba(0,0,0,0)" stroke-width="10"></path><path d="M-85.30552934708474,-215.45717264642158A5,5,0,0,1,-82.39655657427575,-221.98530161109505A236.78400846904054,236.78400846904054,0,0,1,-63.819471966132724,-228.02136229886588A5,5,0,0,1,-57.62892562625781,-224.44984632015127L-52.2252372977285,-203.40386981234388A5,5,0,0,1,-55.70978191137318,-197.34847402345738A205.0609665440988,205.0609665440988,0,0,0,-70.92836227418984,-192.40365751487494A5,5,0,0,1,-77.30669042578747,-195.25441168089503Z" opacity="1" fill="rgb(107, 225, 205)" stroke="rgba(0,0,0,0)" stroke-width="10"></path><path d="M-57.628925626257754,-224.44984632015124A5,5,0,0,1,-53.924699460363094,-230.56190807411397A236.78400846904054,236.78400846904054,0,0,1,-34.73758170907277,-234.22204653634157A5,5,0,0,1,-29.043479322453216,-229.90281183757298L-26.320160979639724,-208.34552740926992A5,5,0,0,1,-30.536171252955608,-202.77460946876502A205.0609665440988,205.0609665440988,0,0,0,-46.25449840644463,-199.77617820242784A5,5,0,0,1,-52.225237297728434,-203.40386981234388Z" opacity="1" fill="rgb(107, 225, 205)" stroke="rgba(0,0,0,0)" stroke-width="10"></path><path d="M-29.043479322453216,-229.902811837573A5,5,0,0,1,-24.602417622906493,-235.50241551579632A236.78400846904054,236.78400846904054,0,0,1,-5.107859037235319,-236.72890918247057A5,5,0,0,1,-4.440892098500626e-14,-231.7300726750334L-4.085620730620576e-14,-210.0014515793665A5,5,0,0,1,-4.880986932454473,-205.00286819107A205.0609665440988,205.0609665440988,0,0,0,-20.85117346773181,-203.9981092192243A5,5,0,0,1,-26.32016097963971,-208.34552740926992Z" opacity="1" fill="rgb(107, 225, 205)" stroke="rgba(0,0,0,0)" stroke-width="10"></path><path d="M2.220446049250313e-14,-259.68443857637106A5,5,0,0,1,5.09625284981357,-264.68351202941244A264.7325694608303,264.7325694608303,0,0,1,28.11757305988688,-263.23513332865593A5,5,0,0,1,32.54709039310754,-257.63674921421426L30.29709130539846,-239.8261724870524A5,5,0,0,1,24.812568387133066,-235.4803667329837A236.78400846904054,236.78400846904054,0,0,0,4.8966019293075,-236.73337313571267A5,5,0,0,1,2.042810365310288e-14,-241.73230390528502Z" opacity="1" fill="rgb(255, 222, 184)" stroke="rgba(0,0,0,0)" stroke-width="10"></path><path d="M32.54709039310754,-257.6367492142142A5,5,0,0,1,38.229707807718505,-261.95767363119904A264.7325694608303,264.7325694608303,0,0,1,60.88796804580887,-257.63537932626A5,5,0,0,1,64.58089372802637,-251.5259744122153L60.116379382305695,-234.13783906348786A5,5,0,0,1,54.13042967779863,-230.513694277723A236.78400846904054,236.78400846904054,0,0,0,34.52854990823466,-234.2529528264291A5,5,0,0,1,30.297091305398467,-239.8261724870524Z" opacity="1" fill="rgb(255, 222, 184)" stroke="rgba(0,0,0,0)" stroke-width="10"></path><path d="M-255.08471322620656,-48.66001147789615A5,5,0,0,1,-259.040296786126,-54.60272863409923A264.7325694608303,264.7325694608303,0,0,1,-253.30380760968353,-76.94487886643117A5,5,0,0,1,-246.97457748850627,-80.24690469481571L-229.90108282816172,-74.69938999614243A5,5,0,0,1,-226.65995035609677,-68.49769026206944A236.78400846904054,236.78400846904054,0,0,0,-231.6226425466914,-49.169280311534834A5,5,0,0,1,-237.45056021543425,-45.29611688360808Z" opacity="1" fill="rgb(112, 236, 215)" stroke="rgba(0,0,0,0)" stroke-width="10"></path><path d="M-246.97457748850624,-80.24690469481573A5,5,0,0,1,-250.1541501332352,-86.63852782943707A264.7325694608303,264.7325694608303,0,0,1,-241.66268095395765,-108.08553079612003A5,5,0,0,1,-234.96950512835105,-110.56825628752068L-218.72592802843917,-102.9246091051849A5,5,0,0,1,-216.28763193526206,-96.36559001273882A236.78400846904054,236.78400846904054,0,0,0,-223.63368393440643,-77.8115806072121A5,5,0,0,1,-229.9010828281617,-74.69938999614244Z" opacity="1" fill="rgb(112, 236, 215)" stroke="rgba(0,0,0,0)" stroke-width="10"></path><path d="M1.1546319456101628e-14,-284.95613697550016A5,5,0,0,1,5.087719298245625,-289.95536744875454A290,290,0,0,1,31.29344267972754,-288.3066430820674A5,5,0,0,1,35.71447407113219,-282.70917272317575L33.800646411639136,-267.55966685974363A5,5,0,0,1,28.305467963536785,-263.2149954252199A264.7325694608303,264.7325694608303,0,0,0,4.907315605045498,-264.6870823952046A5,5,0,0,1,1.0658141036401503e-14,-269.6862232816902Z" opacity="1" fill="rgb(255, 233, 193)" stroke="rgba(0,0,0,0)" stroke-width="10"></path></g><g transform="translate(290,391.5625)"><g transform="translate(104.17821223677296,-97.82985303465054)" opacity="1" style="pointer-events: none;"><text text-anchor="middle" dominant-baseline="central" style="font-family: sans-serif; font-size: 11px; fill: white;">Backend</text></g><g transform="translate(97.82985303465058,104.17821223677292)" opacity="1" style="pointer-events: none;"><text text-anchor="middle" dominant-baseline="central" style="font-family: sans-serif; font-size: 11px; fill: white;">Frontend</text></g><g transform="translate(-68.84828045885185,125.23455724156457)" opacity="1" style="pointer-events: none;"><text text-anchor="middle" dominant-baseline="central" style="font-family: sans-serif; font-size: 11px; fill: white;">Dependency Management</text></g><g transform="translate(-140.38043042520619,26.778999295441896)" opacity="1" style="pointer-events: none;"><text text-anchor="middle" dominant-baseline="central" style="font-family: sans-serif; font-size: 11px; fill: white;">Data Transfer</text></g><g transform="translate(-91.09540409680883,-110.11542762969474)" opacity="1" style="pointer-events: none;"><text text-anchor="middle" dominant-baseline="central" style="font-family: sans-serif; font-size: 11px; fill: white;">Infra</text></g><g transform="translate(23.342847547226565,-184.77766481835872)" opacity="1" style="pointer-events: none;"><text text-anchor="middle" dominant-baseline="central" style="font-family: sans-serif; font-size: 11px; fill: white;">JS/TS</text></g><g transform="translate(79.29980587846484,-168.52066560210523)" opacity="1" style="pointer-events: none;"><text text-anchor="middle" dominant-baseline="central" style="font-family: sans-serif; font-size: 11px; fill: white;">PHP</text></g><g transform="translate(118.71784196818405,-143.50521922827772)" opacity="1" style="pointer-events: none;"><text text-anchor="middle" dominant-baseline="central" style="font-family: sans-serif; font-size: 11px; fill: white;">Java</text></g><g transform="translate(157.25292872738,-99.79574316572986)" opacity="1" style="pointer-events: none;"><text text-anchor="middle" dominant-baseline="central" style="font-family: sans-serif; font-size: 11px; fill: white;">DB</text></g><g transform="translate(184.77766481835872,-23.342847547226555)" opacity="1" style="pointer-events: none;"><text text-anchor="middle" dominant-baseline="central" style="font-family: sans-serif; font-size: 11px; fill: white;">ORM</text></g><g transform="translate(173.16740457310632,68.56182568129941)" opacity="1" style="pointer-events: none;"><text text-anchor="middle" dominant-baseline="central" style="font-family: sans-serif; font-size: 11px; fill: white;">Frameworks</text></g><g transform="translate(127.49434669608289,135.76768948419868)" opacity="1" style="pointer-events: none;"><text text-anchor="middle" dominant-baseline="central" style="font-family: sans-serif; font-size: 11px; fill: white;">Bundlers</text></g><g transform="translate(99.79574316572986,157.25292872737998)" opacity="1" style="pointer-events: none;"><text text-anchor="middle" dominant-baseline="central" style="font-family: sans-serif; font-size: 11px; fill: white;">TypeScript</text></g><g transform="translate(57.553263281088554,177.13073091091923)" opacity="1" style="pointer-events: none;"><text text-anchor="middle" dominant-baseline="central" style="font-family: sans-serif; font-size: 11px; fill: white;">CSS</text></g><g transform="translate(11.694500198400304,185.87875783006618)" opacity="1" style="pointer-events: none;"><text text-anchor="middle" dominant-baseline="central" style="font-family: sans-serif; font-size: 11px; fill: white;">HTML</text></g><g transform="translate(-68.56182568129933,173.16740457310635)" opacity="1" style="pointer-events: none;"><text text-anchor="middle" dominant-baseline="central" style="font-family: sans-serif; font-size: 11px; fill: white;">Package Managers</text></g><g transform="translate(-143.50521922827767,118.71784196818413)" opacity="1" style="pointer-events: none;"><text text-anchor="middle" dominant-baseline="central" style="font-family: sans-serif; font-size: 11px; fill: white;">Concepts</text></g><g transform="translate(-177.13073091091923,57.55326328108856)" opacity="1" style="pointer-events: none;"><text text-anchor="middle" dominant-baseline="central" style="font-family: sans-serif; font-size: 11px; fill: white;">Protocols</text></g><g transform="translate(-186.24627230454513,2.2808590123088754e-14)" opacity="1" style="pointer-events: none;"><text text-anchor="middle" dominant-baseline="central" style="font-family: sans-serif; font-size: 11px; fill: white;">Brokers</text></g><g transform="translate(-184.77766481835872,-23.342847547226413)" opacity="1" style="pointer-events: none;"><text text-anchor="middle" dominant-baseline="central" style="font-family: sans-serif; font-size: 11px; fill: white;">Caching</text></g><g transform="translate(-173.16740457310635,-68.56182568129931)" opacity="1" style="pointer-events: none;"><text text-anchor="middle" dominant-baseline="central" style="font-family: sans-serif; font-size: 11px; fill: white;">Docker</text></g><g transform="translate(-135.76768948419883,-127.49434669608273)" opacity="1" style="pointer-events: none;"><text text-anchor="middle" dominant-baseline="central" style="font-family: sans-serif; font-size: 11px; fill: white;">CI</text></g><g transform="translate(-57.55326328108874,-177.13073091091917)" opacity="1" style="pointer-events: none;"><text text-anchor="middle" dominant-baseline="central" style="font-family: sans-serif; font-size: 11px; fill: white;">Monitoring</text></g><g transform="translate(27.688929726267986,-219.18044770623183)" opacity="1" style="pointer-events: none;"><text text-anchor="middle" dominant-baseline="central" style="font-family: sans-serif; font-size: 11px; fill: white;">NodeJS</text></g><g transform="translate(68.26880307911703,-210.10977133925772)" opacity="1" style="pointer-events: none;"><text text-anchor="middle" dominant-baseline="central" style="font-family: sans-serif; font-size: 11px; fill: white;">Symfony</text></g><g transform="translate(94.06422022134085,-199.89664319403047)" opacity="1" style="pointer-events: none;"><text text-anchor="middle" dominant-baseline="central" style="font-family: sans-serif; font-size: 11px; fill: white;">API-Platform</text></g><g transform="translate(118.37618841943264,-186.5310255731668)" opacity="1" style="pointer-events: none;"><text text-anchor="middle" dominant-baseline="central" style="font-family: sans-serif; font-size: 11px; fill: white;">WordPress</text></g><g transform="translate(140.8212934116427,-170.22370225078078)" opacity="1" style="pointer-events: none;"><text text-anchor="middle" dominant-baseline="central" style="font-family: sans-serif; font-size: 11px; fill: white;">Spring MVC</text></g><g transform="translate(161.04556248418803,-151.23184945718916)" opacity="1" style="pointer-events: none;"><text text-anchor="middle" dominant-baseline="central" style="font-family: sans-serif; font-size: 11px; fill: white;">MongoDB</text></g><g transform="translate(178.73004683240185,-129.85498005612982)" opacity="1" style="pointer-events: none;"><text text-anchor="middle" dominant-baseline="central" style="font-family: sans-serif; font-size: 11px; fill: white;">Elasticsearch</text></g><g transform="translate(193.59585157391396,-106.43022004798027)" opacity="1" style="pointer-events: none;"><text text-anchor="middle" dominant-baseline="central" style="font-family: sans-serif; font-size: 11px; fill: white;">PostgreSQL</text></g><g transform="translate(205.40853408754947,-81.32699189134233)" opacity="1" style="pointer-events: none;"><text text-anchor="middle" dominant-baseline="central" style="font-family: sans-serif; font-size: 11px; fill: white;">SQLite</text></g><g transform="translate(213.98180131351378,-54.94118849018783)" opacity="1" style="pointer-events: none;"><text text-anchor="middle" dominant-baseline="central" style="font-family: sans-serif; font-size: 11px; fill: white;">Mongoose</text></g><g transform="translate(219.1804477062318,-27.68892972626802)" opacity="1" style="pointer-events: none;"><text text-anchor="middle" dominant-baseline="central" style="font-family: sans-serif; font-size: 11px; fill: white;">Doctrine</text></g><g transform="translate(220.92248750656967,0)" opacity="1" style="pointer-events: none;"><text text-anchor="middle" dominant-baseline="central" style="font-family: sans-serif; font-size: 11px; fill: white;">Hibernate</text></g><g transform="translate(219.1804477062318,27.68892972626802)" opacity="1" style="pointer-events: none;"><text text-anchor="middle" dominant-baseline="central" style="font-family: sans-serif; font-size: 11px; fill: white;">AngularJS</text></g><g transform="translate(213.98180131351378,54.94118849018783)" opacity="1" style="pointer-events: none;"><text text-anchor="middle" dominant-baseline="central" style="font-family: sans-serif; font-size: 11px; fill: white;">Angular</text></g><g transform="translate(205.40853408754947,81.32699189134233)" opacity="1" style="pointer-events: none;"><text text-anchor="middle" dominant-baseline="central" style="font-family: sans-serif; font-size: 11px; fill: white;">VueJS</text></g><g transform="translate(193.59585157391396,106.43022004798027)" opacity="1" style="pointer-events: none;"><text text-anchor="middle" dominant-baseline="central" style="font-family: sans-serif; font-size: 11px; fill: white;">React</text></g><g transform="translate(178.73004683240183,129.85498005612988)" opacity="1" style="pointer-events: none;"><text text-anchor="middle" dominant-baseline="central" style="font-family: sans-serif; font-size: 11px; fill: white;">WebComponents</text></g><g transform="translate(161.045562484188,151.23184945718918)" opacity="1" style="pointer-events: none;"><text text-anchor="middle" dominant-baseline="central" style="font-family: sans-serif; font-size: 11px; fill: white;">Webpack</text></g><g transform="translate(140.82129341164273,170.22370225078075)" opacity="1" style="pointer-events: none;"><text text-anchor="middle" dominant-baseline="central" style="font-family: sans-serif; font-size: 11px; fill: white;">Vite</text></g><g transform="translate(94.0642202213408,199.89664319403047)" opacity="1" style="pointer-events: none;"><text text-anchor="middle" dominant-baseline="central" style="font-family: sans-serif; font-size: 11px; fill: white;">LESS</text></g><g transform="translate(68.26880307911695,210.10977133925775)" opacity="1" style="pointer-events: none;"><text text-anchor="middle" dominant-baseline="central" style="font-family: sans-serif; font-size: 11px; fill: white;">SCSS</text></g><g transform="translate(41.39674613052923,217.00934287697143)" opacity="1" style="pointer-events: none;"><text text-anchor="middle" dominant-baseline="central" style="font-family: sans-serif; font-size: 11px; fill: white;">PostCSS</text></g><g transform="translate(13.871837766245688,220.48654744241742)" opacity="1" style="pointer-events: none;"><text text-anchor="middle" dominant-baseline="central" style="font-family: sans-serif; font-size: 11px; fill: white;">JSX</text></g><g transform="translate(-13.87183776624576,220.48654744241742)" opacity="1" style="pointer-events: none;"><text text-anchor="middle" dominant-baseline="central" style="font-family: sans-serif; font-size: 11px; fill: white;">pnpm</text></g><g transform="translate(-41.396746130529394,217.00934287697137)" opacity="1" style="pointer-events: none;"><text text-anchor="middle" dominant-baseline="central" style="font-family: sans-serif; font-size: 11px; fill: white;">yarn</text></g><g transform="translate(-68.2688030791171,210.1097713392577)" opacity="1" style="pointer-events: none;"><text text-anchor="middle" dominant-baseline="central" style="font-family: sans-serif; font-size: 11px; fill: white;">npm</text></g><g transform="translate(-94.06422022134096,199.8966431940304)" opacity="1" style="pointer-events: none;"><text text-anchor="middle" dominant-baseline="central" style="font-family: sans-serif; font-size: 11px; fill: white;">composer</text></g><g transform="translate(-118.37618841943278,186.53102557316674)" opacity="1" style="pointer-events: none;"><text text-anchor="middle" dominant-baseline="central" style="font-family: sans-serif; font-size: 11px; fill: white;">Maven</text></g><g transform="translate(-140.82129341164284,170.22370225078066)" opacity="1" style="pointer-events: none;"><text text-anchor="middle" dominant-baseline="central" style="font-family: sans-serif; font-size: 11px; fill: white;">gradle</text></g><g transform="translate(-161.045562484188,151.23184945718918)" opacity="1" style="pointer-events: none;"><text text-anchor="middle" dominant-baseline="central" style="font-family: sans-serif; font-size: 11px; fill: white;">Monorepo</text></g><g transform="translate(-178.73004683240185,129.85498005612982)" opacity="1" style="pointer-events: none;"><text text-anchor="middle" dominant-baseline="central" style="font-family: sans-serif; font-size: 11px; fill: white;">Library</text></g><g transform="translate(-193.59585157391393,106.43022004798038)" opacity="1" style="pointer-events: none;"><text text-anchor="middle" dominant-baseline="central" style="font-family: sans-serif; font-size: 11px; fill: white;">Protobuf</text></g><g transform="translate(-205.40853408754947,81.32699189134227)" opacity="1" style="pointer-events: none;"><text text-anchor="middle" dominant-baseline="central" style="font-family: sans-serif; font-size: 11px; fill: white;">GraphQL</text></g><g transform="translate(-213.98180131351373,54.941188490187955)" opacity="1" style="pointer-events: none;"><text text-anchor="middle" dominant-baseline="central" style="font-family: sans-serif; font-size: 11px; fill: white;">REST</text></g><g transform="translate(-219.18044770623183,27.68892972626785)" opacity="1" style="pointer-events: none;"><text text-anchor="middle" dominant-baseline="central" style="font-family: sans-serif; font-size: 11px; fill: white;">WebSockets</text></g><g transform="translate(-220.92248750656967,2.7055201718459168e-14)" opacity="1" style="pointer-events: none;"><text text-anchor="middle" dominant-baseline="central" style="font-family: sans-serif; font-size: 11px; fill: white;">Kafka</text></g><g transform="translate(-219.18044770623186,-27.6889297262678)" opacity="1" style="pointer-events: none;"><text text-anchor="middle" dominant-baseline="central" style="font-family: sans-serif; font-size: 11px; fill: white;">Redis</text></g><g transform="translate(-210.10977133925775,-68.268803079117)" opacity="1" style="pointer-events: none;"><text text-anchor="middle" dominant-baseline="central" style="font-family: sans-serif; font-size: 11px; fill: white;">Kubernetes</text></g><g transform="translate(-193.5958515739141,-106.43022004797999)" opacity="1" style="pointer-events: none;"><text text-anchor="middle" dominant-baseline="central" style="font-family: sans-serif; font-size: 11px; fill: white;">Docker Compose</text></g><g transform="translate(-178.73004683240188,-129.85498005612976)" opacity="1" style="pointer-events: none;"><text text-anchor="middle" dominant-baseline="central" style="font-family: sans-serif; font-size: 11px; fill: white;">GitHub Actions</text></g><g transform="translate(-161.04556248418817,-151.231849457189)" opacity="1" style="pointer-events: none;"><text text-anchor="middle" dominant-baseline="central" style="font-family: sans-serif; font-size: 11px; fill: white;">GitlabCI</text></g><g transform="translate(-140.82129341164264,-170.2237022507808)" opacity="1" style="pointer-events: none;"><text text-anchor="middle" dominant-baseline="central" style="font-family: sans-serif; font-size: 11px; fill: white;">Jenkins</text></g><g transform="translate(-118.37618841943275,-186.53102557316677)" opacity="1" style="pointer-events: none;"><text text-anchor="middle" dominant-baseline="central" style="font-family: sans-serif; font-size: 11px; fill: white;">Kibana</text></g><g transform="translate(-94.06422022134109,-199.89664319403033)" opacity="1" style="pointer-events: none;"><text text-anchor="middle" dominant-baseline="central" style="font-family: sans-serif; font-size: 11px; fill: white;">Grafana</text></g><g transform="translate(-68.26880307911706,-210.10977133925772)" opacity="1" style="pointer-events: none;"><text text-anchor="middle" dominant-baseline="central" style="font-family: sans-serif; font-size: 11px; fill: white;">Prometheus</text></g><g transform="translate(-41.39674613052954,-217.00934287697135)" opacity="1" style="pointer-events: none;"><text text-anchor="middle" dominant-baseline="central" style="font-family: sans-serif; font-size: 11px; fill: white;">InfluxDB</text></g><g transform="translate(-13.871837766245715,-220.48654744241742)" opacity="1" style="pointer-events: none;"><text text-anchor="middle" dominant-baseline="central" style="font-family: sans-serif; font-size: 11px; fill: white;">Elastic APM</text></g><g transform="translate(15.745243240390021,-250.26347476194564)" opacity="1" style="pointer-events: none;"><text text-anchor="middle" dominant-baseline="central" style="font-family: sans-serif; font-size: 11px; fill: white;">ExpressJS</text></g><g transform="translate(46.98741782951663,-246.31667026479647)" opacity="1" style="pointer-events: none;"><text text-anchor="middle" dominant-baseline="central" style="font-family: sans-serif; font-size: 11px; fill: white;">Electron</text></g><g transform="translate(-242.88025620486388,-62.3610505883419)" opacity="1" style="pointer-events: none;"><text text-anchor="middle" dominant-baseline="central" style="font-family: sans-serif; font-size: 11px; fill: white;">Skaffold</text></g><g transform="translate(-233.14916072116839,-92.31028295719194)" opacity="1" style="pointer-events: none;"><text text-anchor="middle" dominant-baseline="central" style="font-family: sans-serif; font-size: 11px; fill: white;">Helm</text></g><g transform="translate(17.415973118138268,-276.8189657258007)" opacity="1" style="pointer-events: none;"><text text-anchor="middle" dominant-baseline="central" style="font-family: sans-serif; font-size: 11px; fill: white;">NestJS</text></g></g><g><defs><clipPath id="circleView"><circle cx="290" cy="391.5625" r="96.66666666666667" fill="#FFFFFF"></circle></clipPath></defs><g clip-path="url(#circleView)"><image href="./me.png" x="193.33333333333331" y="294.8958333333333" height="193.33333333333334" width="193.33333333333334" style="opacity: 0.8;"></image><text x="386.6666666666667" y="294.8958333333333" text-anchor="middle" dominant-baseline="central" style="font-size: 12px; font-weight: 600;"></text></g></g></g></svg>
